<svg width="344" height="254" viewBox="0 0 344 254" fill="none" xmlns="http://www.w3.org/2000/svg">
<path d="M45.5 219.5V136V125H220.5L315.5 30V219.5H45.5Z" fill="#5FE008" fill-opacity="0.1" stroke="#378900" stroke-width="2"/>
<path d="M46.0607 0.939325C45.4749 0.353538 44.5251 0.353538 43.9393 0.939325L34.3934 10.4853C33.8076 11.0711 33.8076 12.0208 34.3934 12.6066C34.9792 13.1924 35.9289 13.1924 36.5147 12.6066L45 4.12131L53.4853 12.6066C54.0711 13.1924 55.0208 13.1924 55.6066 12.6066C56.1924 12.0208 56.1924 11.0711 55.6066 10.4853L46.0607 0.939325ZM43.5 219C43.5 219.828 44.1716 220.5 45 220.5C45.8284 220.5 46.5 219.828 46.5 219L43.5 219ZM43.5 1.99998L43.5 219L46.5 219L46.5 1.99998L43.5 1.99998Z" fill="#DDD8CB"/>
<path d="M341.061 220.061C341.646 219.475 341.646 218.525 341.061 217.939L331.515 208.393C330.929 207.808 329.979 207.808 329.393 208.393C328.808 208.979 328.808 209.929 329.393 210.515L337.879 219L329.393 227.485C328.808 228.071 328.808 229.021 329.393 229.607C329.979 230.192 330.929 230.192 331.515 229.607L341.061 220.061ZM45 217.5C44.1716 217.5 43.5 218.172 43.5 219C43.5 219.828 44.1716 220.5 45 220.5V217.5ZM340 217.5H45V220.5H340V217.5Z" fill="#DDD8CB"/>
<path d="M0.672 27.04H11.352V28.528H0.672V27.04ZM6.84 27.64C7.08 28.552 7.412 29.404 7.836 30.196C8.26 30.988 8.784 31.68 9.408 32.272C10.04 32.864 10.776 33.332 11.616 33.676C11.496 33.78 11.368 33.912 11.232 34.072C11.104 34.232 10.976 34.396 10.848 34.564C10.728 34.74 10.628 34.896 10.548 35.032C9.628 34.6 8.836 34.044 8.172 33.364C7.516 32.684 6.964 31.892 6.516 30.988C6.068 30.076 5.692 29.072 5.388 27.976L6.84 27.64ZM5.184 23.812H6.756C6.748 24.42 6.728 25.064 6.696 25.744C6.672 26.416 6.612 27.1 6.516 27.796C6.42 28.492 6.264 29.184 6.048 29.872C5.84 30.552 5.544 31.208 5.16 31.84C4.784 32.464 4.296 33.048 3.696 33.592C3.104 34.136 2.38 34.616 1.524 35.032C1.412 34.84 1.256 34.628 1.056 34.396C0.856 34.164 0.652 33.972 0.444 33.82C1.26 33.452 1.944 33.028 2.496 32.548C3.048 32.06 3.496 31.536 3.84 30.976C4.192 30.408 4.46 29.82 4.644 29.212C4.828 28.596 4.952 27.976 5.016 27.352C5.088 26.728 5.132 26.116 5.148 25.516C5.164 24.916 5.176 24.348 5.184 23.812ZM17.256 23.968H18.828V33.268C18.828 33.716 18.772 34.052 18.66 34.276C18.548 34.5 18.356 34.672 18.084 34.792C17.804 34.904 17.452 34.976 17.028 35.008C16.612 35.048 16.112 35.064 15.528 35.056C15.504 34.92 15.46 34.76 15.396 34.576C15.332 34.4 15.26 34.22 15.18 34.036C15.108 33.852 15.032 33.696 14.952 33.568C15.216 33.576 15.48 33.584 15.744 33.592C16.008 33.6 16.244 33.604 16.452 33.604C16.66 33.596 16.808 33.592 16.896 33.592C17.024 33.592 17.116 33.568 17.172 33.52C17.228 33.472 17.256 33.388 17.256 33.268V23.968ZM20.136 27.124L21.552 26.596C21.88 27.164 22.196 27.772 22.5 28.42C22.812 29.06 23.084 29.692 23.316 30.316C23.556 30.932 23.728 31.492 23.832 31.996L22.248 32.62C22.168 32.132 22.02 31.576 21.804 30.952C21.596 30.32 21.344 29.672 21.048 29.008C20.76 28.336 20.456 27.708 20.136 27.124ZM14.112 26.728L15.744 27.004C15.608 27.596 15.444 28.228 15.252 28.9C15.06 29.564 14.832 30.2 14.568 30.808C14.312 31.408 14.016 31.932 13.68 32.38C13.56 32.292 13.412 32.2 13.236 32.104C13.068 32.008 12.896 31.92 12.72 31.84C12.552 31.752 12.4 31.68 12.264 31.624C12.592 31.216 12.876 30.732 13.116 30.172C13.364 29.604 13.572 29.02 13.74 28.42C13.908 27.812 14.032 27.248 14.112 26.728ZM6.312 42.62H7.692V50.168H6.312V42.62ZM3.288 47.132H10.908V48.368H3.288V47.132ZM2.532 49.556H11.568V50.792H2.532V49.556ZM4.176 42.776L5.484 42.872C5.388 43.752 5.188 44.516 4.884 45.164C4.58 45.812 4.16 46.352 3.624 46.784C3.56 46.704 3.46 46.612 3.324 46.508C3.196 46.396 3.064 46.288 2.928 46.184C2.792 46.08 2.672 46 2.568 45.944C3.072 45.608 3.448 45.172 3.696 44.636C3.944 44.092 4.104 43.472 4.176 42.776ZM3.996 44.804L4.764 43.952C4.956 44.104 5.156 44.28 5.364 44.48C5.58 44.672 5.784 44.864 5.976 45.056C6.168 45.248 6.32 45.42 6.432 45.572L5.64 46.532C5.528 46.38 5.38 46.204 5.196 46.004C5.012 45.796 4.816 45.588 4.608 45.38C4.4 45.172 4.196 44.98 3.996 44.804ZM9 42.776L10.296 42.92C10.168 43.744 9.944 44.476 9.624 45.116C9.304 45.756 8.88 46.28 8.352 46.688C8.28 46.608 8.184 46.516 8.064 46.412C7.944 46.308 7.82 46.204 7.692 46.1C7.564 45.988 7.452 45.9 7.356 45.836C7.836 45.516 8.208 45.092 8.472 44.564C8.736 44.036 8.912 43.44 9 42.776ZM8.664 44.804L9.48 43.916C9.704 44.1 9.952 44.304 10.224 44.528C10.496 44.744 10.756 44.96 11.004 45.176C11.26 45.392 11.468 45.584 11.628 45.752L10.788 46.748C10.636 46.572 10.436 46.372 10.188 46.148C9.948 45.916 9.692 45.684 9.42 45.452C9.156 45.212 8.904 44.996 8.664 44.804ZM5.628 39.8H7.128V41.924H5.628V39.8ZM1.98 40.904H11.484V42.236H1.98V40.904ZM1.224 40.904H2.628V44.18C2.628 44.668 2.612 45.208 2.58 45.8C2.556 46.384 2.5 46.988 2.412 47.612C2.332 48.228 2.212 48.828 2.052 49.412C1.892 49.988 1.684 50.512 1.428 50.984C1.34 50.896 1.22 50.8 1.068 50.696C0.924 50.592 0.772 50.492 0.612 50.396C0.452 50.3 0.316 50.228 0.204 50.18C0.444 49.748 0.632 49.28 0.768 48.776C0.904 48.264 1.004 47.74 1.068 47.204C1.132 46.66 1.172 46.128 1.188 45.608C1.212 45.088 1.224 44.608 1.224 44.168V40.904ZM17.316 45.5H22.98V46.544H17.316V45.5ZM16.596 40.292H23.604V41.444H16.596V40.292ZM16.536 47.012H23.64V48.164H16.536V47.012ZM21.108 48.956L22.116 48.284C22.308 48.46 22.508 48.652 22.716 48.86C22.924 49.068 23.116 49.276 23.292 49.484C23.476 49.692 23.62 49.884 23.724 50.06L22.644 50.804C22.556 50.636 22.424 50.444 22.248 50.228C22.08 50.012 21.896 49.792 21.696 49.568C21.496 49.344 21.3 49.14 21.108 48.956ZM18.132 43.04V44.024H22.056V43.04H18.132ZM16.944 42.008H23.292V45.068H16.944V42.008ZM19.404 47.588H20.736V49.808C20.736 50.088 20.704 50.316 20.64 50.492C20.584 50.668 20.46 50.8 20.268 50.888C20.084 50.976 19.864 51.032 19.608 51.056C19.352 51.08 19.06 51.092 18.732 51.092C18.708 50.908 18.656 50.708 18.576 50.492C18.504 50.284 18.428 50.096 18.348 49.928C18.54 49.936 18.72 49.944 18.888 49.952C19.064 49.952 19.18 49.948 19.236 49.94C19.3 49.932 19.344 49.92 19.368 49.904C19.392 49.888 19.404 49.852 19.404 49.796V47.588ZM17.748 48.26L18.852 48.86C18.604 49.236 18.312 49.596 17.976 49.94C17.64 50.284 17.304 50.572 16.968 50.804C16.864 50.668 16.728 50.516 16.56 50.348C16.392 50.18 16.232 50.04 16.08 49.928C16.4 49.728 16.712 49.472 17.016 49.16C17.32 48.848 17.564 48.548 17.748 48.26ZM18.612 40.976H19.728V42.62H18.612V40.976ZM18.756 42.44H19.716V44.792H18.756V42.44ZM20.388 40.976H21.504V42.62H20.388V40.976ZM20.388 42.44H21.36V44.792H20.388V42.44ZM12.54 42.296H16.5V43.628H12.54V42.296ZM14.004 39.8H15.3V51.068H14.004V39.8ZM13.98 43.208L14.772 43.472C14.692 43.952 14.588 44.448 14.46 44.96C14.332 45.464 14.188 45.964 14.028 46.46C13.868 46.948 13.692 47.404 13.5 47.828C13.316 48.252 13.116 48.616 12.9 48.92C12.836 48.736 12.736 48.52 12.6 48.272C12.472 48.024 12.356 47.82 12.252 47.66C12.444 47.396 12.628 47.088 12.804 46.736C12.98 46.384 13.144 46.008 13.296 45.608C13.448 45.208 13.58 44.804 13.692 44.396C13.812 43.98 13.908 43.584 13.98 43.208ZM15.24 44.108C15.312 44.188 15.416 44.336 15.552 44.552C15.696 44.76 15.848 44.992 16.008 45.248C16.176 45.496 16.324 45.728 16.452 45.944C16.588 46.152 16.68 46.3 16.728 46.388L15.984 47.42C15.912 47.236 15.816 47.02 15.696 46.772C15.584 46.524 15.46 46.268 15.324 46.004C15.196 45.74 15.072 45.492 14.952 45.26C14.832 45.028 14.728 44.836 14.64 44.684L15.24 44.108ZM24.564 49.16C24.564 48.792 24.668 48.536 24.876 48.392C25.084 48.24 25.336 48.164 25.632 48.164C25.912 48.164 26.156 48.24 26.364 48.392C26.572 48.536 26.676 48.792 26.676 49.16C26.676 49.512 26.572 49.768 26.364 49.928C26.156 50.08 25.912 50.156 25.632 50.156C25.336 50.156 25.084 50.08 24.876 49.928C24.668 49.768 24.564 49.512 24.564 49.16ZM27.7984 49.16C27.7984 48.792 27.9024 48.536 28.1104 48.392C28.3184 48.24 28.5704 48.164 28.8664 48.164C29.1464 48.164 29.3904 48.24 29.5984 48.392C29.8064 48.536 29.9104 48.792 29.9104 49.16C29.9104 49.512 29.8064 49.768 29.5984 49.928C29.3904 50.08 29.1464 50.156 28.8664 50.156C28.5704 50.156 28.3184 50.08 28.1104 49.928C27.9024 49.768 27.7984 49.512 27.7984 49.16ZM31.0328 49.16C31.0328 48.792 31.1368 48.536 31.3448 48.392C31.5528 48.24 31.8048 48.164 32.1008 48.164C32.3808 48.164 32.6248 48.24 32.8328 48.392C33.0408 48.536 33.1448 48.792 33.1448 49.16C33.1448 49.512 33.0408 49.768 32.8328 49.928C32.6248 50.08 32.3808 50.156 32.1008 50.156C31.8048 50.156 31.5528 50.08 31.3448 49.928C31.1368 49.768 31.0328 49.512 31.0328 49.16Z" fill="white"/>
<path d="M261.388 247.7H265.468V248.72H261.388V247.7ZM261.388 249.224H265.468V250.256H261.388V249.224ZM260.752 246.104H265.48V247.208H262.072V252.08H260.752V246.104ZM262.864 242.876H265.516V243.752H263.944V244.952H262.864V242.876ZM265.012 246.104H266.356V250.808C266.356 251.104 266.316 251.336 266.236 251.504C266.164 251.672 266.024 251.8 265.816 251.888C265.616 251.976 265.368 252.032 265.072 252.056C264.784 252.08 264.432 252.092 264.016 252.092C263.992 251.916 263.94 251.72 263.86 251.504C263.788 251.296 263.716 251.116 263.644 250.964C263.876 250.972 264.108 250.98 264.34 250.988C264.58 250.988 264.736 250.988 264.808 250.988C264.88 250.988 264.932 250.976 264.964 250.952C264.996 250.92 265.012 250.864 265.012 250.784V246.104ZM259.636 244.436H267.532V246.692H266.164V245.54H260.956V246.692H259.636V244.436ZM260.752 241.22H266.38V244.964H265.024V242.324H262.036V244.964H260.752V241.22ZM257.032 241.916L257.812 240.86C258.06 240.956 258.32 241.072 258.592 241.208C258.872 241.344 259.136 241.484 259.384 241.628C259.64 241.772 259.844 241.916 259.996 242.06L259.168 243.236C259.024 243.092 258.832 242.94 258.592 242.78C258.352 242.62 258.092 242.464 257.812 242.312C257.54 242.16 257.28 242.028 257.032 241.916ZM256.336 245.192L257.104 244.1C257.36 244.188 257.628 244.296 257.908 244.424C258.188 244.552 258.456 244.688 258.712 244.832C258.968 244.976 259.176 245.116 259.336 245.252L258.508 246.452C258.364 246.316 258.168 246.172 257.92 246.02C257.672 245.86 257.408 245.708 257.128 245.564C256.856 245.42 256.592 245.296 256.336 245.192ZM256.684 251.012C256.884 250.7 257.108 250.336 257.356 249.92C257.604 249.496 257.856 249.048 258.112 248.576C258.368 248.104 258.608 247.632 258.832 247.16L259.924 248.06C259.724 248.484 259.512 248.92 259.288 249.368C259.072 249.816 258.848 250.256 258.616 250.688C258.392 251.112 258.168 251.52 257.944 251.912L256.684 251.012ZM272.788 240.788L273.796 241.76C273.292 241.952 272.728 242.124 272.104 242.276C271.488 242.42 270.9 242.54 270.34 242.636C270.316 242.5 270.264 242.336 270.184 242.144C270.104 241.944 270.028 241.78 269.956 241.652C270.3 241.58 270.644 241.5 270.988 241.412C271.332 241.316 271.66 241.216 271.972 241.112C272.284 241 272.556 240.892 272.788 240.788ZM269.572 241.484L270.988 241.748V245.432H269.572V241.484ZM269.572 244.868H277.144V242.444H274.504V241.328H278.572V245.972H269.572V244.868ZM270.184 243.08H273.484V244.16H270.184V243.08ZM274.576 243.08H277.744V244.16H274.576V243.08ZM269.812 246.308H271.18V250.964L269.812 251.168V246.308ZM273.268 246.32H274.564V251.108L273.268 251.312V246.32ZM268.504 250.676C269.024 250.628 269.632 250.564 270.328 250.484C271.032 250.404 271.744 250.316 272.464 250.22L272.524 251.408C271.852 251.504 271.18 251.592 270.508 251.672C269.836 251.76 269.228 251.84 268.684 251.912L268.504 250.676ZM272.68 250.724C273.192 250.668 273.8 250.6 274.504 250.52C275.208 250.44 275.928 250.356 276.664 250.268L276.7 251.408C276.028 251.504 275.352 251.596 274.672 251.684C274 251.772 273.388 251.852 272.836 251.924L272.68 250.724ZM276.64 246.32H278.044C278.02 247.288 278.028 248.1 278.068 248.756C278.108 249.412 278.172 249.908 278.26 250.244C278.348 250.572 278.448 250.736 278.56 250.736C278.64 250.736 278.696 250.66 278.728 250.508C278.768 250.348 278.792 250.076 278.8 249.692C278.928 249.812 279.08 249.924 279.256 250.028C279.432 250.132 279.592 250.208 279.736 250.256C279.704 250.736 279.636 251.108 279.532 251.372C279.436 251.644 279.296 251.832 279.112 251.936C278.936 252.04 278.72 252.092 278.464 252.092C277.976 252.092 277.6 251.86 277.336 251.396C277.08 250.94 276.9 250.284 276.796 249.428C276.7 248.564 276.648 247.528 276.64 246.32ZM271.228 247.208L271.936 246.464C272.16 246.576 272.396 246.712 272.644 246.872C272.892 247.032 273.08 247.184 273.208 247.328L272.464 248.144C272.336 248 272.152 247.84 271.912 247.664C271.68 247.48 271.452 247.328 271.228 247.208ZM271.18 249.08L271.9 248.312C272.116 248.416 272.34 248.548 272.572 248.708C272.812 248.86 272.996 249.008 273.124 249.152L272.38 249.98C272.26 249.844 272.084 249.692 271.852 249.524C271.628 249.348 271.404 249.2 271.18 249.08ZM274.612 247.28L275.296 246.524C275.52 246.636 275.76 246.772 276.016 246.932C276.28 247.092 276.488 247.24 276.64 247.376L275.92 248.228C275.792 248.084 275.6 247.924 275.344 247.748C275.088 247.572 274.844 247.416 274.612 247.28ZM274.552 249.092L275.272 248.336C275.504 248.456 275.752 248.608 276.016 248.792C276.28 248.968 276.488 249.128 276.64 249.272L275.884 250.112C275.748 249.968 275.548 249.8 275.284 249.608C275.028 249.408 274.784 249.236 274.552 249.092ZM287.464 240.812L288.856 241.076C288.48 241.732 288.008 242.344 287.44 242.912C286.872 243.48 286.168 243.992 285.328 244.448C285.264 244.336 285.18 244.216 285.076 244.088C284.98 243.96 284.872 243.84 284.752 243.728C284.64 243.608 284.536 243.516 284.44 243.452C285.2 243.1 285.828 242.688 286.324 242.216C286.82 241.744 287.2 241.276 287.464 240.812ZM287.476 241.856H290.212V243.008H286.66L287.476 241.856ZM289.696 241.856H289.948L290.188 241.808L291.1 242.216C290.868 242.848 290.564 243.416 290.188 243.92C289.82 244.416 289.392 244.856 288.904 245.24C288.416 245.616 287.888 245.94 287.32 246.212C286.752 246.484 286.152 246.712 285.52 246.896C285.448 246.72 285.34 246.52 285.196 246.296C285.052 246.064 284.912 245.884 284.776 245.756C285.344 245.62 285.884 245.444 286.396 245.228C286.908 245.004 287.38 244.736 287.812 244.424C288.252 244.112 288.632 243.76 288.952 243.368C289.272 242.968 289.52 242.532 289.696 242.06V241.856ZM286.096 243.872L286.996 243.164C287.172 243.268 287.356 243.388 287.548 243.524C287.74 243.66 287.92 243.8 288.088 243.944C288.256 244.08 288.396 244.212 288.508 244.34L287.56 245.12C287.464 245 287.332 244.868 287.164 244.724C287.004 244.572 286.828 244.424 286.636 244.28C286.452 244.128 286.272 243.992 286.096 243.872ZM288.04 245.48L289.432 245.732C289.056 246.428 288.568 247.084 287.968 247.7C287.368 248.316 286.62 248.872 285.724 249.368C285.66 249.256 285.576 249.136 285.472 249.008C285.376 248.88 285.272 248.756 285.16 248.636C285.048 248.516 284.94 248.424 284.836 248.36C285.38 248.104 285.86 247.82 286.276 247.508C286.692 247.188 287.044 246.856 287.332 246.512C287.628 246.168 287.864 245.824 288.04 245.48ZM288.088 246.536H290.656V247.712H287.272L288.088 246.536ZM290.176 246.536H290.464L290.716 246.488L291.64 246.86C291.4 247.644 291.076 248.328 290.668 248.912C290.268 249.488 289.792 249.984 289.24 250.4C288.688 250.816 288.076 251.16 287.404 251.432C286.74 251.712 286.024 251.94 285.256 252.116C285.192 251.932 285.092 251.716 284.956 251.468C284.82 251.228 284.684 251.036 284.548 250.892C285.236 250.772 285.88 250.6 286.48 250.376C287.08 250.152 287.624 249.872 288.112 249.536C288.608 249.192 289.028 248.788 289.372 248.324C289.724 247.86 289.992 247.332 290.176 246.74V246.536ZM286.42 248.756L287.38 247.952C287.588 248.064 287.804 248.196 288.028 248.348C288.252 248.492 288.46 248.644 288.652 248.804C288.844 248.956 289 249.104 289.12 249.248L288.1 250.112C287.988 249.976 287.84 249.828 287.656 249.668C287.472 249.5 287.272 249.336 287.056 249.176C286.84 249.016 286.628 248.876 286.42 248.756ZM282.22 241.928H283.612V252.068H282.22V241.928ZM280.492 244.184H284.896V245.516H280.492V244.184ZM282.292 244.724L283.132 245.084C283.02 245.516 282.884 245.964 282.724 246.428C282.564 246.892 282.388 247.352 282.196 247.808C282.004 248.256 281.8 248.68 281.584 249.08C281.368 249.48 281.144 249.828 280.912 250.124C280.84 249.916 280.736 249.684 280.6 249.428C280.472 249.164 280.352 248.94 280.24 248.756C280.448 248.516 280.652 248.236 280.852 247.916C281.06 247.588 281.256 247.24 281.44 246.872C281.624 246.504 281.788 246.136 281.932 245.768C282.076 245.4 282.196 245.052 282.292 244.724ZM284.08 240.932L285.052 242.036C284.644 242.188 284.196 242.328 283.708 242.456C283.22 242.584 282.72 242.696 282.208 242.792C281.704 242.88 281.22 242.956 280.756 243.02C280.724 242.86 280.668 242.676 280.588 242.468C280.508 242.252 280.428 242.068 280.348 241.916C280.788 241.844 281.236 241.76 281.692 241.664C282.156 241.56 282.592 241.444 283 241.316C283.416 241.188 283.776 241.06 284.08 240.932ZM283.588 245.852C283.66 245.908 283.768 246.012 283.912 246.164C284.064 246.308 284.224 246.468 284.392 246.644C284.568 246.82 284.724 246.984 284.86 247.136C284.996 247.28 285.096 247.384 285.16 247.448L284.332 248.588C284.26 248.436 284.164 248.264 284.044 248.072C283.932 247.88 283.808 247.68 283.672 247.472C283.544 247.264 283.416 247.068 283.288 246.884C283.16 246.692 283.048 246.536 282.952 246.416L283.588 245.852ZM292.696 248.564H298.3V249.584H292.696V248.564ZM292.432 242.852H298.432V243.896H292.432V242.852ZM294.808 242.012H296.116V250.616H294.808V242.012ZM292.36 250.472C292.864 250.44 293.44 250.4 294.088 250.352C294.736 250.304 295.42 250.252 296.14 250.196C296.868 250.132 297.592 250.068 298.312 250.004L298.324 251.096C297.644 251.168 296.956 251.24 296.26 251.312C295.572 251.384 294.908 251.448 294.268 251.504C293.636 251.568 293.056 251.628 292.528 251.684L292.36 250.472ZM293.884 246.656V247.196H297.052V246.656H293.884ZM293.884 245.264V245.804H297.052V245.264H293.884ZM292.744 244.364H298.24V248.096H292.744V244.364ZM297.664 240.872L298.288 241.94C297.784 242.044 297.216 242.136 296.584 242.216C295.96 242.288 295.32 242.348 294.664 242.396C294.008 242.436 293.38 242.464 292.78 242.48C292.756 242.328 292.712 242.156 292.648 241.964C292.592 241.764 292.528 241.592 292.456 241.448C292.904 241.424 293.364 241.396 293.836 241.364C294.308 241.324 294.772 241.28 295.228 241.232C295.692 241.184 296.128 241.132 296.536 241.076C296.952 241.012 297.328 240.944 297.664 240.872ZM298.42 243.524H302.584V244.844H298.42V243.524ZM301.996 243.524H303.376C303.376 243.524 303.376 243.564 303.376 243.644C303.376 243.724 303.376 243.816 303.376 243.92C303.376 244.016 303.376 244.096 303.376 244.16C303.344 245.392 303.312 246.44 303.28 247.304C303.248 248.16 303.212 248.868 303.172 249.428C303.14 249.98 303.088 250.412 303.016 250.724C302.952 251.036 302.872 251.26 302.776 251.396C302.64 251.596 302.496 251.736 302.344 251.816C302.2 251.904 302.028 251.968 301.828 252.008C301.644 252.04 301.42 252.056 301.156 252.056C300.892 252.064 300.616 252.064 300.328 252.056C300.32 251.856 300.276 251.624 300.196 251.36C300.124 251.096 300.032 250.868 299.92 250.676C300.176 250.7 300.412 250.716 300.628 250.724C300.844 250.732 301.008 250.736 301.12 250.736C301.216 250.736 301.296 250.72 301.36 250.688C301.424 250.656 301.484 250.604 301.54 250.532C301.604 250.436 301.66 250.252 301.708 249.98C301.756 249.7 301.796 249.304 301.828 248.792C301.868 248.272 301.9 247.604 301.924 246.788C301.956 245.972 301.98 244.984 301.996 243.824V243.524ZM299.572 241.004H300.952C300.952 242.028 300.94 243 300.916 243.92C300.9 244.84 300.848 245.708 300.76 246.524C300.68 247.332 300.54 248.084 300.34 248.78C300.148 249.468 299.876 250.096 299.524 250.664C299.172 251.232 298.72 251.732 298.168 252.164C298.096 252.044 298 251.916 297.88 251.78C297.768 251.644 297.648 251.512 297.52 251.384C297.4 251.264 297.28 251.164 297.16 251.084C297.664 250.7 298.072 250.26 298.384 249.764C298.696 249.26 298.936 248.704 299.104 248.096C299.272 247.48 299.388 246.808 299.452 246.08C299.516 245.344 299.552 244.556 299.56 243.716C299.568 242.868 299.572 241.964 299.572 241.004ZM306.676 249.74C306.612 250.02 306.524 250.324 306.412 250.652C306.308 250.972 306.196 251.292 306.076 251.612C305.956 251.94 305.832 252.252 305.704 252.548H304.336C304.408 252.228 304.48 251.892 304.552 251.54C304.624 251.196 304.688 250.856 304.744 250.52C304.808 250.184 304.856 249.88 304.888 249.608H306.592L306.676 249.74ZM316.092 246.248V247.088H319.056V246.248H316.092ZM314.832 245.18H320.412V248.156H314.832V245.18ZM313.896 241.712H321.708V242.948H313.896V241.712ZM316.488 243.332H319.02V244.472H316.488V243.332ZM316.944 240.788H318.372V242.468H316.944V240.788ZM315.444 248.876H316.728V251.06H315.444V248.876ZM314.484 250.7C314.988 250.636 315.584 250.556 316.272 250.46C316.96 250.364 317.66 250.264 318.372 250.16L318.444 251.312C317.804 251.424 317.16 251.532 316.512 251.636C315.864 251.748 315.272 251.848 314.736 251.936L314.484 250.7ZM315.156 243.812L316.416 244.148C316.168 244.66 315.84 245.152 315.432 245.624C315.032 246.088 314.616 246.472 314.184 246.776C314.112 246.696 314.012 246.604 313.884 246.5C313.764 246.388 313.64 246.28 313.512 246.176C313.384 246.064 313.268 245.976 313.164 245.912C313.588 245.664 313.976 245.356 314.328 244.988C314.68 244.62 314.956 244.228 315.156 243.812ZM317.268 247.376L318.48 247.796C318.152 248.188 317.748 248.544 317.268 248.864C316.796 249.184 316.288 249.464 315.744 249.704C315.2 249.944 314.656 250.148 314.112 250.316C314.064 250.228 313.992 250.116 313.896 249.98C313.808 249.836 313.712 249.696 313.608 249.56C313.512 249.424 313.42 249.316 313.332 249.236C313.852 249.116 314.36 248.968 314.856 248.792C315.352 248.608 315.812 248.4 316.236 248.168C316.66 247.928 317.004 247.664 317.268 247.376ZM318.084 243.332H319.464C319.632 243.644 319.844 243.948 320.1 244.244C320.356 244.532 320.644 244.796 320.964 245.036C321.292 245.276 321.628 245.472 321.972 245.624C321.876 245.704 321.764 245.808 321.636 245.936C321.516 246.056 321.4 246.184 321.288 246.32C321.176 246.448 321.084 246.568 321.012 246.68C320.652 246.464 320.304 246.212 319.968 245.924C319.632 245.636 319.324 245.328 319.044 245C318.772 244.664 318.544 244.324 318.36 243.98H318.084V243.332ZM318.432 247.688C318.696 248.464 319.116 249.144 319.692 249.728C320.276 250.312 321.004 250.732 321.876 250.988C321.724 251.108 321.564 251.28 321.396 251.504C321.236 251.736 321.108 251.944 321.012 252.128C320.052 251.776 319.272 251.24 318.672 250.52C318.072 249.8 317.608 248.94 317.28 247.94L318.432 247.688ZM320.88 248.144L321.768 249.032C321.432 249.264 321.072 249.492 320.688 249.716C320.304 249.932 319.956 250.112 319.644 250.256L318.912 249.464C319.112 249.36 319.332 249.236 319.572 249.092C319.812 248.94 320.048 248.78 320.28 248.612C320.512 248.436 320.712 248.28 320.88 248.144ZM311.064 241.916L311.868 240.872C312.1 240.968 312.344 241.084 312.6 241.22C312.864 241.356 313.112 241.496 313.344 241.64C313.576 241.776 313.764 241.916 313.908 242.06L313.056 243.212C312.92 243.068 312.74 242.92 312.516 242.768C312.292 242.616 312.052 242.464 311.796 242.312C311.548 242.16 311.304 242.028 311.064 241.916ZM310.5 245.168L311.292 244.112C311.524 244.2 311.768 244.308 312.024 244.436C312.288 244.556 312.532 244.688 312.756 244.832C312.988 244.968 313.18 245.1 313.332 245.228L312.48 246.392C312.344 246.264 312.164 246.124 311.94 245.972C311.716 245.82 311.476 245.676 311.22 245.54C310.972 245.396 310.732 245.272 310.5 245.168ZM310.752 251.144C310.928 250.824 311.12 250.452 311.328 250.028C311.536 249.604 311.744 249.152 311.952 248.672C312.168 248.192 312.368 247.716 312.552 247.244L313.704 248.048C313.544 248.472 313.372 248.912 313.188 249.368C313.004 249.816 312.816 250.26 312.624 250.7C312.432 251.132 312.244 251.544 312.06 251.936L310.752 251.144ZM322.86 248.564H328.464V249.584H322.86V248.564ZM322.596 242.852H328.596V243.896H322.596V242.852ZM324.972 242.012H326.28V250.616H324.972V242.012ZM322.524 250.472C323.028 250.44 323.604 250.4 324.252 250.352C324.9 250.304 325.584 250.252 326.304 250.196C327.032 250.132 327.756 250.068 328.476 250.004L328.488 251.096C327.808 251.168 327.12 251.24 326.424 251.312C325.736 251.384 325.072 251.448 324.432 251.504C323.8 251.568 323.22 251.628 322.692 251.684L322.524 250.472ZM324.048 246.656V247.196H327.216V246.656H324.048ZM324.048 245.264V245.804H327.216V245.264H324.048ZM322.908 244.364H328.404V248.096H322.908V244.364ZM327.828 240.872L328.452 241.94C327.948 242.044 327.38 242.136 326.748 242.216C326.124 242.288 325.484 242.348 324.828 242.396C324.172 242.436 323.544 242.464 322.944 242.48C322.92 242.328 322.876 242.156 322.812 241.964C322.756 241.764 322.692 241.592 322.62 241.448C323.068 241.424 323.528 241.396 324 241.364C324.472 241.324 324.936 241.28 325.392 241.232C325.856 241.184 326.292 241.132 326.7 241.076C327.116 241.012 327.492 240.944 327.828 240.872ZM328.584 243.524H332.748V244.844H328.584V243.524ZM332.16 243.524H333.54C333.54 243.524 333.54 243.564 333.54 243.644C333.54 243.724 333.54 243.816 333.54 243.92C333.54 244.016 333.54 244.096 333.54 244.16C333.508 245.392 333.476 246.44 333.444 247.304C333.412 248.16 333.376 248.868 333.336 249.428C333.304 249.98 333.252 250.412 333.18 250.724C333.116 251.036 333.036 251.26 332.94 251.396C332.804 251.596 332.66 251.736 332.508 251.816C332.364 251.904 332.192 251.968 331.992 252.008C331.808 252.04 331.584 252.056 331.32 252.056C331.056 252.064 330.78 252.064 330.492 252.056C330.484 251.856 330.44 251.624 330.36 251.36C330.288 251.096 330.196 250.868 330.084 250.676C330.34 250.7 330.576 250.716 330.792 250.724C331.008 250.732 331.172 250.736 331.284 250.736C331.38 250.736 331.46 250.72 331.524 250.688C331.588 250.656 331.648 250.604 331.704 250.532C331.768 250.436 331.824 250.252 331.872 249.98C331.92 249.7 331.96 249.304 331.992 248.792C332.032 248.272 332.064 247.604 332.088 246.788C332.12 245.972 332.144 244.984 332.16 243.824V243.524ZM329.736 241.004H331.116C331.116 242.028 331.104 243 331.08 243.92C331.064 244.84 331.012 245.708 330.924 246.524C330.844 247.332 330.704 248.084 330.504 248.78C330.312 249.468 330.04 250.096 329.688 250.664C329.336 251.232 328.884 251.732 328.332 252.164C328.26 252.044 328.164 251.916 328.044 251.78C327.932 251.644 327.812 251.512 327.684 251.384C327.564 251.264 327.444 251.164 327.324 251.084C327.828 250.7 328.236 250.26 328.548 249.764C328.86 249.26 329.1 248.704 329.268 248.096C329.436 247.48 329.552 246.808 329.616 246.08C329.68 245.344 329.716 244.556 329.724 243.716C329.732 242.868 329.736 241.964 329.736 241.004ZM334.728 250.16C334.728 249.792 334.832 249.536 335.04 249.392C335.248 249.24 335.5 249.164 335.796 249.164C336.076 249.164 336.32 249.24 336.528 249.392C336.736 249.536 336.84 249.792 336.84 250.16C336.84 250.512 336.736 250.768 336.528 250.928C336.32 251.08 336.076 251.156 335.796 251.156C335.5 251.156 335.248 251.08 335.04 250.928C334.832 250.768 334.728 250.512 334.728 250.16ZM337.962 250.16C337.962 249.792 338.066 249.536 338.274 249.392C338.482 249.24 338.734 249.164 339.03 249.164C339.31 249.164 339.554 249.24 339.762 249.392C339.97 249.536 340.074 249.792 340.074 250.16C340.074 250.512 339.97 250.768 339.762 250.928C339.554 251.08 339.31 251.156 339.03 251.156C338.734 251.156 338.482 251.08 338.274 250.928C338.066 250.768 337.962 250.512 337.962 250.16ZM341.197 250.16C341.197 249.792 341.301 249.536 341.509 249.392C341.717 249.24 341.969 249.164 342.265 249.164C342.545 249.164 342.789 249.24 342.997 249.392C343.205 249.536 343.309 249.792 343.309 250.16C343.309 250.512 343.205 250.768 342.997 250.928C342.789 251.08 342.545 251.156 342.265 251.156C341.969 251.156 341.717 251.08 341.509 250.928C341.301 250.768 341.197 250.512 341.197 250.16Z" fill="white"/>
</svg>
