<svg width="34" height="29" viewBox="0 0 34 29" fill="none" xmlns="http://www.w3.org/2000/svg">
<path d="M0.672 4.04H11.352V5.528H0.672V4.04ZM6.84 4.64C7.08 5.552 7.412 6.404 7.836 7.196C8.26 7.988 8.784 8.68 9.408 9.272C10.04 9.864 10.776 10.332 11.616 10.676C11.496 10.78 11.368 10.912 11.232 11.072C11.104 11.232 10.976 11.396 10.848 11.564C10.728 11.74 10.628 11.896 10.548 12.032C9.628 11.6 8.836 11.044 8.172 10.364C7.516 9.684 6.964 8.892 6.516 7.988C6.068 7.076 5.692 6.072 5.388 4.976L6.84 4.64ZM5.184 0.812H6.756C6.748 1.42 6.728 2.064 6.696 2.744C6.672 3.416 6.612 4.1 6.516 4.796C6.42 5.492 6.264 6.184 6.048 6.872C5.84 7.552 5.544 8.208 5.16 8.84C4.784 9.464 4.296 10.048 3.696 10.592C3.104 11.136 2.38 11.616 1.524 12.032C1.412 11.84 1.256 11.628 1.056 11.396C0.856 11.164 0.652 10.972 0.444 10.82C1.26 10.452 1.944 10.028 2.496 9.548C3.048 9.06 3.496 8.536 3.84 7.976C4.192 7.408 4.46 6.82 4.644 6.212C4.828 5.596 4.952 4.976 5.016 4.352C5.088 3.728 5.132 3.116 5.148 2.516C5.164 1.916 5.176 1.348 5.184 0.812ZM17.256 0.968H18.828V10.268C18.828 10.716 18.772 11.052 18.66 11.276C18.548 11.5 18.356 11.672 18.084 11.792C17.804 11.904 17.452 11.976 17.028 12.008C16.612 12.048 16.112 12.064 15.528 12.056C15.504 11.92 15.46 11.76 15.396 11.576C15.332 11.4 15.26 11.22 15.18 11.036C15.108 10.852 15.032 10.696 14.952 10.568C15.216 10.576 15.48 10.584 15.744 10.592C16.008 10.6 16.244 10.604 16.452 10.604C16.66 10.596 16.808 10.592 16.896 10.592C17.024 10.592 17.116 10.568 17.172 10.52C17.228 10.472 17.256 10.388 17.256 10.268V0.968ZM20.136 4.124L21.552 3.596C21.88 4.164 22.196 4.772 22.5 5.42C22.812 6.06 23.084 6.692 23.316 7.316C23.556 7.932 23.728 8.492 23.832 8.996L22.248 9.62C22.168 9.132 22.02 8.576 21.804 7.952C21.596 7.32 21.344 6.672 21.048 6.008C20.76 5.336 20.456 4.708 20.136 4.124ZM14.112 3.728L15.744 4.004C15.608 4.596 15.444 5.228 15.252 5.9C15.06 6.564 14.832 7.2 14.568 7.808C14.312 8.408 14.016 8.932 13.68 9.38C13.56 9.292 13.412 9.2 13.236 9.104C13.068 9.008 12.896 8.92 12.72 8.84C12.552 8.752 12.4 8.68 12.264 8.624C12.592 8.216 12.876 7.732 13.116 7.172C13.364 6.604 13.572 6.02 13.74 5.42C13.908 4.812 14.032 4.248 14.112 3.728ZM6.312 19.62H7.692V27.168H6.312V19.62ZM3.288 24.132H10.908V25.368H3.288V24.132ZM2.532 26.556H11.568V27.792H2.532V26.556ZM4.176 19.776L5.484 19.872C5.388 20.752 5.188 21.516 4.884 22.164C4.58 22.812 4.16 23.352 3.624 23.784C3.56 23.704 3.46 23.612 3.324 23.508C3.196 23.396 3.064 23.288 2.928 23.184C2.792 23.08 2.672 23 2.568 22.944C3.072 22.608 3.448 22.172 3.696 21.636C3.944 21.092 4.104 20.472 4.176 19.776ZM3.996 21.804L4.764 20.952C4.956 21.104 5.156 21.28 5.364 21.48C5.58 21.672 5.784 21.864 5.976 22.056C6.168 22.248 6.32 22.42 6.432 22.572L5.64 23.532C5.528 23.38 5.38 23.204 5.196 23.004C5.012 22.796 4.816 22.588 4.608 22.38C4.4 22.172 4.196 21.98 3.996 21.804ZM9 19.776L10.296 19.92C10.168 20.744 9.944 21.476 9.624 22.116C9.304 22.756 8.88 23.28 8.352 23.688C8.28 23.608 8.184 23.516 8.064 23.412C7.944 23.308 7.82 23.204 7.692 23.1C7.564 22.988 7.452 22.9 7.356 22.836C7.836 22.516 8.208 22.092 8.472 21.564C8.736 21.036 8.912 20.44 9 19.776ZM8.664 21.804L9.48 20.916C9.704 21.1 9.952 21.304 10.224 21.528C10.496 21.744 10.756 21.96 11.004 22.176C11.26 22.392 11.468 22.584 11.628 22.752L10.788 23.748C10.636 23.572 10.436 23.372 10.188 23.148C9.948 22.916 9.692 22.684 9.42 22.452C9.156 22.212 8.904 21.996 8.664 21.804ZM5.628 16.8H7.128V18.924H5.628V16.8ZM1.98 17.904H11.484V19.236H1.98V17.904ZM1.224 17.904H2.628V21.18C2.628 21.668 2.612 22.208 2.58 22.8C2.556 23.384 2.5 23.988 2.412 24.612C2.332 25.228 2.212 25.828 2.052 26.412C1.892 26.988 1.684 27.512 1.428 27.984C1.34 27.896 1.22 27.8 1.068 27.696C0.924 27.592 0.772 27.492 0.612 27.396C0.452 27.3 0.316 27.228 0.204 27.18C0.444 26.748 0.632 26.28 0.768 25.776C0.904 25.264 1.004 24.74 1.068 24.204C1.132 23.66 1.172 23.128 1.188 22.608C1.212 22.088 1.224 21.608 1.224 21.168V17.904ZM17.316 22.5H22.98V23.544H17.316V22.5ZM16.596 17.292H23.604V18.444H16.596V17.292ZM16.536 24.012H23.64V25.164H16.536V24.012ZM21.108 25.956L22.116 25.284C22.308 25.46 22.508 25.652 22.716 25.86C22.924 26.068 23.116 26.276 23.292 26.484C23.476 26.692 23.62 26.884 23.724 27.06L22.644 27.804C22.556 27.636 22.424 27.444 22.248 27.228C22.08 27.012 21.896 26.792 21.696 26.568C21.496 26.344 21.3 26.14 21.108 25.956ZM18.132 20.04V21.024H22.056V20.04H18.132ZM16.944 19.008H23.292V22.068H16.944V19.008ZM19.404 24.588H20.736V26.808C20.736 27.088 20.704 27.316 20.64 27.492C20.584 27.668 20.46 27.8 20.268 27.888C20.084 27.976 19.864 28.032 19.608 28.056C19.352 28.08 19.06 28.092 18.732 28.092C18.708 27.908 18.656 27.708 18.576 27.492C18.504 27.284 18.428 27.096 18.348 26.928C18.54 26.936 18.72 26.944 18.888 26.952C19.064 26.952 19.18 26.948 19.236 26.94C19.3 26.932 19.344 26.92 19.368 26.904C19.392 26.888 19.404 26.852 19.404 26.796V24.588ZM17.748 25.26L18.852 25.86C18.604 26.236 18.312 26.596 17.976 26.94C17.64 27.284 17.304 27.572 16.968 27.804C16.864 27.668 16.728 27.516 16.56 27.348C16.392 27.18 16.232 27.04 16.08 26.928C16.4 26.728 16.712 26.472 17.016 26.16C17.32 25.848 17.564 25.548 17.748 25.26ZM18.612 17.976H19.728V19.62H18.612V17.976ZM18.756 19.44H19.716V21.792H18.756V19.44ZM20.388 17.976H21.504V19.62H20.388V17.976ZM20.388 19.44H21.36V21.792H20.388V19.44ZM12.54 19.296H16.5V20.628H12.54V19.296ZM14.004 16.8H15.3V28.068H14.004V16.8ZM13.98 20.208L14.772 20.472C14.692 20.952 14.588 21.448 14.46 21.96C14.332 22.464 14.188 22.964 14.028 23.46C13.868 23.948 13.692 24.404 13.5 24.828C13.316 25.252 13.116 25.616 12.9 25.92C12.836 25.736 12.736 25.52 12.6 25.272C12.472 25.024 12.356 24.82 12.252 24.66C12.444 24.396 12.628 24.088 12.804 23.736C12.98 23.384 13.144 23.008 13.296 22.608C13.448 22.208 13.58 21.804 13.692 21.396C13.812 20.98 13.908 20.584 13.98 20.208ZM15.24 21.108C15.312 21.188 15.416 21.336 15.552 21.552C15.696 21.76 15.848 21.992 16.008 22.248C16.176 22.496 16.324 22.728 16.452 22.944C16.588 23.152 16.68 23.3 16.728 23.388L15.984 24.42C15.912 24.236 15.816 24.02 15.696 23.772C15.584 23.524 15.46 23.268 15.324 23.004C15.196 22.74 15.072 22.492 14.952 22.26C14.832 22.028 14.728 21.836 14.64 21.684L15.24 21.108ZM24.564 26.16C24.564 25.792 24.668 25.536 24.876 25.392C25.084 25.24 25.336 25.164 25.632 25.164C25.912 25.164 26.156 25.24 26.364 25.392C26.572 25.536 26.676 25.792 26.676 26.16C26.676 26.512 26.572 26.768 26.364 26.928C26.156 27.08 25.912 27.156 25.632 27.156C25.336 27.156 25.084 27.08 24.876 26.928C24.668 26.768 24.564 26.512 24.564 26.16ZM27.7984 26.16C27.7984 25.792 27.9024 25.536 28.1104 25.392C28.3184 25.24 28.5704 25.164 28.8664 25.164C29.1464 25.164 29.3904 25.24 29.5984 25.392C29.8064 25.536 29.9104 25.792 29.9104 26.16C29.9104 26.512 29.8064 26.768 29.5984 26.928C29.3904 27.08 29.1464 27.156 28.8664 27.156C28.5704 27.156 28.3184 27.08 28.1104 26.928C27.9024 26.768 27.7984 26.512 27.7984 26.16ZM31.0328 26.16C31.0328 25.792 31.1368 25.536 31.3448 25.392C31.5528 25.24 31.8048 25.164 32.1008 25.164C32.3808 25.164 32.6248 25.24 32.8328 25.392C33.0408 25.536 33.1448 25.792 33.1448 26.16C33.1448 26.512 33.0408 26.768 32.8328 26.928C32.6248 27.08 32.3808 27.156 32.1008 27.156C31.8048 27.156 31.5528 27.08 31.3448 26.928C31.1368 26.768 31.0328 26.512 31.0328 26.16Z" fill="white"/>
</svg>
